<?xml version="1.0" encoding="UTF-8"?>
<svg xmlns="http://www.w3.org/2000/svg" xmlns:xlink="http://www.w3.org/1999/xlink" width="16px" height="16px" viewBox="0 0 16 15" version="1.1">
<g id="surface1">
<path style=" stroke:none;fill-rule:nonzero;fill:rgb(99.607843%,45.882353%,0.392157%);fill-opacity:1;" d="M 1.300781 1.132812 C 1.605469 1.402344 1.832031 1.675781 2.054688 2.007812 C 2.121094 2.105469 2.1875 2.203125 2.253906 2.304688 C 2.394531 2.515625 2.535156 2.730469 2.675781 2.941406 C 3.125 3.621094 3.125 3.621094 3.625 4.269531 C 4.460938 5.304688 4.429688 6.339844 4.398438 7.605469 C 4.398438 7.90625 4.421875 8.195312 4.453125 8.492188 C 4.585938 9.964844 4.054688 10.859375 3.203125 12.066406 C 2.855469 12.566406 2.550781 13.089844 2.238281 13.609375 C 2.125 13.796875 2.011719 13.984375 1.894531 14.171875 C 1.847656 14.25 1.800781 14.328125 1.75 14.40625 C 1.589844 14.636719 1.40625 14.808594 1.199219 15 C 1.195312 13.769531 1.195312 12.535156 1.195312 11.304688 C 1.195312 11.210938 1.195312 11.121094 1.195312 11.027344 C 1.191406 7.726562 1.222656 4.429688 1.300781 1.132812 Z M 1.300781 1.132812 "/>
<path style=" stroke:none;fill-rule:nonzero;fill:rgb(85.882354%,7.058824%,49.803922%);fill-opacity:1;" d="M 10.992188 7.972656 C 11.179688 7.972656 11.363281 7.976562 11.550781 7.976562 C 12.769531 7.992188 13.984375 8.050781 15.199219 8.113281 C 14.929688 8.378906 14.660156 8.535156 14.316406 8.710938 C 14.257812 8.742188 14.203125 8.769531 14.140625 8.800781 C 14.019531 8.863281 13.894531 8.929688 13.769531 8.992188 C 13.4375 9.160156 13.105469 9.332031 12.777344 9.503906 C 12.710938 9.539062 12.644531 9.574219 12.574219 9.609375 C 11.996094 9.90625 11.421875 10.210938 10.851562 10.519531 C 9.925781 11.015625 8.996094 11.5 8.0625 11.984375 C 7.144531 12.460938 6.230469 12.945312 5.316406 13.433594 C 4.382812 13.933594 3.441406 14.421875 2.5 14.90625 C 2.46875 14.84375 2.433594 14.78125 2.398438 14.71875 C 2.511719 14.472656 2.632812 14.242188 2.761719 14.007812 C 2.800781 13.9375 2.839844 13.867188 2.878906 13.796875 C 2.960938 13.644531 3.046875 13.492188 3.128906 13.34375 C 3.253906 13.117188 3.378906 12.890625 3.503906 12.664062 C 4.734375 10.414062 4.734375 10.414062 5.800781 9.8125 C 5.957031 9.722656 6.113281 9.632812 6.269531 9.542969 C 6.695312 9.300781 7.117188 9.0625 7.546875 8.828125 C 7.804688 8.683594 7.804688 8.683594 8.035156 8.5 C 8.9375 7.835938 9.902344 7.941406 10.992188 7.972656 Z M 10.992188 7.972656 "/>
<path style=" stroke:none;fill-rule:nonzero;fill:rgb(30.980393%,82.352942%,68.627453%);fill-opacity:1;" d="M 1.898438 0 C 2.28125 0.132812 2.621094 0.300781 2.96875 0.496094 C 3.078125 0.558594 3.1875 0.621094 3.300781 0.683594 C 3.421875 0.75 3.539062 0.816406 3.65625 0.882812 C 3.777344 0.953125 3.898438 1.023438 4.023438 1.089844 C 4.382812 1.292969 4.742188 1.496094 5.101562 1.699219 C 5.195312 1.753906 5.292969 1.804688 5.390625 1.863281 C 5.882812 2.140625 6.375 2.417969 6.863281 2.695312 C 7.097656 2.828125 7.335938 2.960938 7.570312 3.09375 C 8.492188 3.617188 9.414062 4.140625 10.335938 4.671875 C 11.363281 5.261719 12.390625 5.84375 13.429688 6.414062 C 13.824219 6.632812 14.210938 6.855469 14.601562 7.074219 C 14.566406 7.136719 14.535156 7.199219 14.5 7.265625 C 14.285156 7.269531 14.066406 7.277344 13.851562 7.285156 C 13.785156 7.285156 13.71875 7.289062 13.648438 7.292969 C 13.273438 7.304688 12.898438 7.3125 12.523438 7.320312 C 12.371094 7.324219 12.21875 7.328125 12.066406 7.332031 C 11.953125 7.335938 11.953125 7.335938 11.835938 7.339844 C 11.421875 7.347656 11.011719 7.371094 10.597656 7.40625 C 9.148438 7.519531 8.191406 6.996094 6.980469 6.285156 C 6.726562 6.144531 6.476562 6.039062 6.203125 5.9375 C 4.769531 5.382812 4.238281 4.246094 3.589844 3 C 3.253906 2.355469 2.878906 1.734375 2.5 1.109375 C 2.382812 0.914062 2.265625 0.71875 2.148438 0.523438 C 2.101562 0.441406 2.054688 0.363281 2.003906 0.277344 C 1.898438 0.09375 1.898438 0.09375 1.898438 0 Z M 1.898438 0 "/>
<path style=" stroke:none;fill-rule:nonzero;fill:rgb(37.254903%,83.529413%,65.098041%);fill-opacity:1;" d="M 1.898438 0 C 2.28125 0.132812 2.621094 0.300781 2.96875 0.496094 C 3.078125 0.558594 3.1875 0.621094 3.300781 0.683594 C 3.421875 0.75 3.539062 0.816406 3.65625 0.882812 C 3.777344 0.953125 3.898438 1.023438 4.023438 1.089844 C 4.382812 1.292969 4.742188 1.496094 5.101562 1.699219 C 5.195312 1.753906 5.292969 1.804688 5.390625 1.863281 C 5.882812 2.140625 6.375 2.417969 6.863281 2.695312 C 7.097656 2.828125 7.335938 2.960938 7.570312 3.09375 C 8.492188 3.617188 9.414062 4.140625 10.335938 4.671875 C 11.363281 5.261719 12.390625 5.84375 13.429688 6.414062 C 13.824219 6.632812 14.210938 6.855469 14.601562 7.074219 C 14.566406 7.136719 14.535156 7.199219 14.5 7.265625 C 12.699219 7.320312 10.902344 7.375 9.101562 7.359375 C 9.101562 7.328125 9.101562 7.296875 9.101562 7.265625 C 9.207031 7.257812 9.316406 7.246094 9.429688 7.238281 C 9.835938 7.210938 10.242188 7.179688 10.648438 7.148438 C 10.824219 7.136719 11 7.121094 11.175781 7.109375 C 11.425781 7.089844 11.679688 7.070312 11.933594 7.050781 C 12.011719 7.046875 12.085938 7.039062 12.167969 7.035156 C 12.242188 7.03125 12.316406 7.023438 12.390625 7.019531 C 12.457031 7.011719 12.519531 7.007812 12.585938 7.003906 C 12.859375 6.976562 13.128906 6.929688 13.398438 6.886719 C 12.90625 6.558594 12.90625 6.558594 12.398438 6.226562 C 12.300781 6.289062 12.203125 6.351562 12.101562 6.414062 C 12.03125 6.378906 11.960938 6.339844 11.886719 6.304688 C 10.328125 5.484375 8.769531 4.671875 7.199219 3.867188 C 7.234375 3.941406 7.269531 4.015625 7.304688 4.089844 C 7.398438 4.339844 7.398438 4.339844 7.324219 4.546875 C 7.199219 4.71875 7.199219 4.71875 7 4.90625 C 7 5 7 5.09375 7 5.1875 C 5.582031 3.867188 5.582031 3.867188 5.050781 3.277344 C 4.835938 3.042969 4.601562 2.832031 4.371094 2.617188 C 4.140625 2.394531 3.933594 2.160156 3.726562 1.921875 C 3.601562 1.78125 3.601562 1.78125 3.398438 1.699219 C 3.425781 1.75 3.449219 1.796875 3.476562 1.847656 C 3.585938 2.074219 3.695312 2.300781 3.804688 2.53125 C 3.84375 2.609375 3.882812 2.6875 3.925781 2.769531 C 3.960938 2.84375 3.996094 2.917969 4.035156 2.996094 C 4.070312 3.066406 4.101562 3.136719 4.136719 3.207031 C 4.199219 3.394531 4.199219 3.394531 4.101562 3.679688 C 3.847656 3.378906 3.652344 3.066406 3.457031 2.734375 C 3.410156 2.652344 3.410156 2.652344 3.359375 2.570312 C 3.292969 2.457031 3.226562 2.339844 3.160156 2.226562 C 3.058594 2.054688 2.957031 1.878906 2.855469 1.707031 C 2.523438 1.144531 2.199219 0.578125 1.898438 0 Z M 1.898438 0 "/>
<path style=" stroke:none;fill-rule:nonzero;fill:rgb(89.803922%,10.980392%,35.294119%);fill-opacity:1;" d="M 10.992188 7.972656 C 11.179688 7.972656 11.363281 7.976562 11.550781 7.976562 C 12.769531 7.992188 13.984375 8.050781 15.199219 8.113281 C 14.917969 8.394531 14.605469 8.566406 14.25 8.746094 C 14.1875 8.78125 14.125 8.8125 14.058594 8.847656 C 13.859375 8.949219 13.65625 9.054688 13.457031 9.15625 C 13.320312 9.226562 13.1875 9.296875 13.050781 9.367188 C 12 9.910156 12 9.910156 11.601562 10.09375 C 11.601562 10.03125 11.601562 9.96875 11.601562 9.90625 C 11.78125 9.753906 11.78125 9.753906 12.023438 9.582031 C 12.105469 9.523438 12.183594 9.46875 12.265625 9.410156 C 12.417969 9.304688 12.574219 9.199219 12.730469 9.09375 C 12.785156 9.050781 12.84375 9.007812 12.898438 8.960938 C 12.898438 8.898438 12.898438 8.835938 12.898438 8.773438 C 12.472656 8.867188 12.042969 8.960938 11.601562 9.054688 C 11.601562 9.148438 11.601562 9.242188 11.601562 9.339844 C 11.5 9.339844 11.402344 9.339844 11.300781 9.339844 C 11.300781 9.277344 11.300781 9.214844 11.300781 9.152344 C 11.242188 9.164062 11.183594 9.175781 11.125 9.191406 C 10.511719 9.324219 9.902344 9.460938 9.292969 9.59375 C 9.066406 9.644531 8.839844 9.695312 8.609375 9.746094 C 8.285156 9.816406 7.957031 9.890625 7.628906 9.960938 C 7.476562 9.996094 7.476562 9.996094 7.324219 10.03125 C 6.765625 10.152344 6.269531 10.214844 5.699219 10.1875 C 6.007812 9.664062 6.355469 9.441406 6.90625 9.15625 C 7.050781 9.082031 7.191406 9.007812 7.335938 8.929688 C 7.449219 8.871094 7.449219 8.871094 7.566406 8.8125 C 7.804688 8.683594 7.804688 8.683594 8.027344 8.503906 C 8.9375 7.835938 9.898438 7.941406 10.992188 7.972656 Z M 10.992188 7.972656 "/>
<path style=" stroke:none;fill-rule:nonzero;fill:rgb(76.47059%,40.000001%,12.941177%);fill-opacity:1;" d="M 4.101562 5.378906 C 4.164062 5.378906 4.230469 5.378906 4.300781 5.378906 C 4.328125 5.992188 4.351562 6.605469 4.371094 7.222656 C 4.386719 7.648438 4.410156 8.070312 4.457031 8.496094 C 4.578125 9.964844 4.054688 10.863281 3.203125 12.066406 C 2.855469 12.570312 2.542969 13.097656 2.226562 13.621094 C 2.109375 13.808594 1.992188 14 1.875 14.1875 C 1.828125 14.269531 1.777344 14.347656 1.730469 14.429688 C 1.601562 14.621094 1.601562 14.621094 1.398438 14.8125 C 1.453125 14.171875 1.597656 13.628906 1.820312 13.023438 C 2.265625 11.757812 2.644531 10.476562 3.023438 9.191406 C 3.054688 9.089844 3.085938 8.988281 3.117188 8.882812 C 3.460938 7.71875 3.800781 6.554688 4.101562 5.378906 Z M 4.101562 5.378906 "/>
<path style=" stroke:none;fill-rule:nonzero;fill:rgb(80.392158%,15.294118%,66.274512%);fill-opacity:1;" d="M 5.800781 9.8125 C 5.867188 9.84375 5.933594 9.875 6 9.90625 C 5.933594 9.96875 5.867188 10.03125 5.800781 10.09375 C 6.292969 10.113281 6.710938 10.0625 7.1875 9.945312 C 7.398438 9.90625 7.398438 9.90625 7.800781 9.90625 C 7.765625 10.125 7.734375 10.339844 7.699219 10.566406 C 6.511719 10.800781 6.511719 10.800781 5.300781 11.039062 C 5.171875 11.4375 5.171875 11.4375 5.300781 11.792969 C 5.191406 12.03125 5.046875 12.234375 4.898438 12.453125 C 4.96875 12.417969 5.039062 12.382812 5.109375 12.347656 C 5.199219 12.300781 5.289062 12.257812 5.382812 12.210938 C 5.46875 12.167969 5.558594 12.121094 5.652344 12.074219 C 5.898438 11.980469 5.898438 11.980469 6.199219 12.074219 C 6.089844 12.351562 6.019531 12.441406 5.742188 12.59375 C 5.484375 12.714844 5.484375 12.714844 5.417969 12.941406 C 5.410156 13.027344 5.410156 13.027344 5.398438 13.113281 C 5.539062 13.039062 5.539062 13.039062 5.679688 12.964844 C 6 12.832031 6 12.832031 6.300781 12.925781 C 5.9375 13.117188 5.574219 13.308594 5.210938 13.496094 C 5.089844 13.5625 4.964844 13.628906 4.84375 13.691406 C 4.039062 14.117188 3.230469 14.523438 2.398438 14.90625 C 2.539062 14.472656 2.726562 14.078125 2.949219 13.679688 C 2.980469 13.617188 3.015625 13.554688 3.050781 13.492188 C 3.121094 13.359375 3.195312 13.230469 3.265625 13.097656 C 3.375 12.902344 3.480469 12.707031 3.589844 12.511719 C 4.71875 10.445312 4.71875 10.445312 5.335938 10.082031 C 5.425781 10.03125 5.511719 9.976562 5.601562 9.921875 C 5.667969 9.886719 5.734375 9.847656 5.800781 9.8125 Z M 5.800781 9.8125 "/>
<path style=" stroke:none;fill-rule:nonzero;fill:rgb(100%,90.588236%,5.098039%);fill-opacity:1;" d="M 5 5.945312 C 5.632812 6.007812 6.175781 6.351562 6.726562 6.628906 C 6.925781 6.726562 7.121094 6.824219 7.320312 6.921875 C 7.445312 6.984375 7.570312 7.046875 7.695312 7.109375 C 7.808594 7.167969 7.921875 7.222656 8.039062 7.28125 C 8.300781 7.453125 8.300781 7.453125 8.386719 7.664062 C 8.390625 7.71875 8.394531 7.773438 8.398438 7.832031 C 8.074219 8.03125 7.746094 8.230469 7.417969 8.425781 C 7.132812 8.597656 6.847656 8.773438 6.566406 8.949219 C 6.421875 9.035156 6.28125 9.121094 6.136719 9.210938 C 6.070312 9.253906 6.003906 9.292969 5.933594 9.339844 C 5.449219 9.628906 5.449219 9.628906 5.179688 9.585938 C 5.089844 9.558594 5.089844 9.558594 5 9.527344 C 4.933594 8.648438 4.890625 7.769531 4.886719 6.886719 C 4.886719 6.804688 4.886719 6.722656 4.886719 6.636719 C 4.886719 6.050781 4.886719 6.050781 5 5.945312 Z M 5 5.945312 "/>
<path style=" stroke:none;fill-rule:nonzero;fill:rgb(27.450982%,61.176473%,55.686277%);fill-opacity:1;" d="M 3.398438 1.699219 C 3.6875 1.820312 3.882812 1.945312 4.097656 2.164062 C 4.152344 2.222656 4.207031 2.277344 4.261719 2.335938 C 4.320312 2.394531 4.378906 2.457031 4.4375 2.519531 C 4.5625 2.644531 4.6875 2.773438 4.8125 2.902344 C 4.875 2.96875 4.941406 3.035156 5.007812 3.101562 C 6.316406 4.488281 6.316406 4.488281 7.757812 5.75 C 8.171875 6.074219 8.480469 6.476562 8.800781 6.886719 C 8.640625 6.953125 8.640625 6.953125 8.398438 6.980469 C 8.109375 6.867188 8.109375 6.867188 7.773438 6.695312 C 7.714844 6.664062 7.652344 6.632812 7.589844 6.601562 C 7.398438 6.503906 7.210938 6.402344 7.019531 6.304688 C 6.890625 6.238281 6.765625 6.171875 6.636719 6.105469 C 6.289062 5.929688 5.945312 5.746094 5.601562 5.566406 C 5.539062 5.535156 5.476562 5.503906 5.410156 5.472656 C 4.925781 5.222656 4.714844 4.996094 4.460938 4.546875 C 4.429688 4.488281 4.394531 4.433594 4.359375 4.378906 C 4.128906 3.984375 4.0625 3.644531 4 3.207031 C 3.878906 2.914062 3.746094 2.628906 3.609375 2.339844 C 3.398438 1.902344 3.398438 1.902344 3.398438 1.699219 Z M 3.398438 1.699219 "/>
<path style=" stroke:none;fill-rule:nonzero;fill:rgb(100%,29.411766%,0.784314%);fill-opacity:1;" d="M 1.300781 1.132812 C 1.753906 1.5625 2.074219 2.019531 2.417969 2.53125 C 2.53125 2.695312 2.644531 2.859375 2.757812 3.023438 C 2.832031 3.125 2.902344 3.230469 2.972656 3.335938 C 3.039062 3.433594 3.105469 3.527344 3.171875 3.625 C 3.234375 3.746094 3.234375 3.746094 3.300781 3.867188 C 3.265625 3.960938 3.234375 4.054688 3.199219 4.152344 C 3.066406 4.121094 2.9375 4.089844 2.800781 4.054688 C 2.859375 4.246094 2.925781 4.4375 3 4.621094 C 3.066406 4.652344 3.132812 4.683594 3.199219 4.71875 C 3.507812 5.097656 3.53125 5.378906 3.5 5.847656 C 3.402344 5.894531 3.402344 5.894531 3.300781 5.945312 C 3.300781 5.882812 3.300781 5.820312 3.300781 5.753906 C 3.199219 5.753906 3.101562 5.753906 3 5.753906 C 3 5.535156 3 5.320312 3 5.09375 C 2.851562 5.046875 2.851562 5.046875 2.699219 5 C 2.628906 4.875 2.5625 4.75 2.5 4.621094 C 2.433594 4.589844 2.367188 4.558594 2.300781 4.527344 C 2.300781 4.933594 2.300781 5.335938 2.300781 5.753906 C 2.199219 5.722656 2.101562 5.691406 2 5.660156 C 2.03125 5.753906 2.066406 5.847656 2.101562 5.945312 C 2.035156 6.035156 1.96875 6.128906 1.898438 6.226562 C 1.601562 6.273438 1.601562 6.273438 1.300781 6.320312 C 1.300781 4.609375 1.300781 2.894531 1.300781 1.132812 Z M 1.300781 1.132812 "/>
<path style=" stroke:none;fill-rule:nonzero;fill:rgb(80.784315%,9.803922%,66.666669%);fill-opacity:1;" d="M 5.800781 9.8125 C 5.867188 9.84375 5.933594 9.875 6 9.90625 C 5.933594 9.96875 5.867188 10.03125 5.800781 10.09375 C 6.292969 10.113281 6.710938 10.0625 7.1875 9.945312 C 7.398438 9.90625 7.398438 9.90625 7.800781 9.90625 C 7.765625 10.125 7.734375 10.339844 7.699219 10.566406 C 6.511719 10.800781 6.511719 10.800781 5.300781 11.039062 C 5.265625 11.164062 5.234375 11.285156 5.199219 11.414062 C 5.070312 11.542969 4.9375 11.667969 4.800781 11.792969 C 4.699219 11.933594 4.601562 12.082031 4.511719 12.230469 C 4.253906 12.644531 3.988281 13.058594 3.71875 13.46875 C 3.605469 13.667969 3.546875 13.835938 3.5 14.054688 C 3.300781 14.101562 3.300781 14.101562 3.101562 14.152344 C 3.152344 13.765625 3.296875 13.480469 3.496094 13.148438 C 3.617188 12.910156 3.617188 12.910156 3.683594 12.574219 C 3.800781 12.117188 4.011719 11.726562 4.25 11.316406 C 4.292969 11.238281 4.335938 11.164062 4.382812 11.089844 C 4.742188 10.5 5.144531 10.113281 5.800781 9.8125 Z M 5.800781 9.8125 "/>
<path style=" stroke:none;fill-rule:nonzero;fill:rgb(84.313726%,16.470589%,52.941179%);fill-opacity:1;" d="M 9.601562 10.28125 C 9.601562 10.34375 9.601562 10.40625 9.601562 10.472656 C 9.546875 10.488281 9.496094 10.503906 9.441406 10.519531 C 8.648438 10.78125 7.980469 11.207031 7.285156 11.644531 C 6.621094 12.0625 6.621094 12.0625 6.398438 12.167969 C 6.308594 12.148438 6.214844 12.132812 6.117188 12.109375 C 5.6875 12.0625 5.511719 12.214844 5.171875 12.449219 C 5.085938 12.496094 5.085938 12.496094 5 12.546875 C 4.933594 12.515625 4.867188 12.484375 4.800781 12.453125 C 4.902344 12.285156 5.007812 12.121094 5.113281 11.957031 C 5.214844 11.792969 5.214844 11.792969 5.199219 11.605469 C 5.101562 11.574219 5.003906 11.542969 4.898438 11.507812 C 5.167969 10.996094 5.167969 10.996094 5.5 10.867188 C 5.753906 10.8125 6.003906 10.773438 6.261719 10.738281 C 6.355469 10.722656 6.449219 10.707031 6.542969 10.691406 C 6.734375 10.664062 6.925781 10.636719 7.117188 10.605469 C 7.386719 10.566406 7.65625 10.523438 7.925781 10.480469 C 9.121094 10.28125 9.121094 10.28125 9.601562 10.28125 Z M 9.601562 10.28125 "/>
<path style=" stroke:none;fill-rule:nonzero;fill:rgb(94.901961%,37.254903%,27.058825%);fill-opacity:1;" d="M 8.898438 8.019531 C 9.476562 8.015625 10.050781 8.015625 10.628906 8.015625 C 10.820312 8.011719 11.015625 8.011719 11.210938 8.011719 C 12.542969 8.007812 13.871094 8.039062 15.199219 8.113281 C 14.917969 8.394531 14.605469 8.566406 14.25 8.746094 C 14.1875 8.78125 14.125 8.8125 14.058594 8.847656 C 13.859375 8.949219 13.65625 9.054688 13.457031 9.15625 C 13.320312 9.226562 13.1875 9.296875 13.050781 9.367188 C 12 9.910156 12 9.910156 11.601562 10.09375 C 11.601562 10.03125 11.601562 9.96875 11.601562 9.90625 C 11.78125 9.753906 11.78125 9.753906 12.023438 9.582031 C 12.105469 9.523438 12.183594 9.46875 12.265625 9.410156 C 12.417969 9.304688 12.574219 9.199219 12.730469 9.09375 C 12.785156 9.050781 12.84375 9.007812 12.898438 8.960938 C 12.898438 8.898438 12.898438 8.835938 12.898438 8.773438 C 12.8125 8.796875 12.722656 8.816406 12.628906 8.839844 C 12.511719 8.867188 12.394531 8.894531 12.273438 8.921875 C 12.160156 8.949219 12.042969 8.976562 11.921875 9.003906 C 11.628906 9.050781 11.476562 9.058594 11.199219 8.960938 C 11.585938 8.851562 11.890625 8.773438 12.300781 8.773438 C 12.300781 8.648438 12.300781 8.523438 12.300781 8.394531 C 12.207031 8.390625 12.109375 8.386719 12.011719 8.382812 C 10.96875 8.328125 9.9375 8.230469 8.898438 8.113281 C 8.898438 8.082031 8.898438 8.050781 8.898438 8.019531 Z M 8.898438 8.019531 "/>
<path style=" stroke:none;fill-rule:nonzero;fill:rgb(51.764709%,71.372551%,42.352942%);fill-opacity:1;" d="M 1.898438 0 C 2.304688 0.140625 2.660156 0.320312 3.027344 0.527344 C 3.117188 0.578125 3.117188 0.578125 3.207031 0.625 C 3.328125 0.695312 3.453125 0.761719 3.574219 0.832031 C 3.761719 0.9375 3.949219 1.042969 4.136719 1.144531 C 4.257812 1.210938 4.378906 1.28125 4.496094 1.347656 C 4.660156 1.4375 4.660156 1.4375 4.824219 1.53125 C 5.050781 1.667969 5.222656 1.792969 5.398438 1.980469 C 5.238281 1.972656 5.074219 1.960938 4.914062 1.953125 C 4.777344 1.945312 4.777344 1.945312 4.636719 1.933594 C 4.398438 1.886719 4.398438 1.886719 4.199219 1.605469 C 3.894531 1.488281 3.894531 1.488281 3.601562 1.414062 C 3.980469 1.839844 4.371094 2.253906 4.769531 2.664062 C 4.816406 2.714844 4.863281 2.761719 4.914062 2.8125 C 5.136719 3.042969 5.363281 3.273438 5.601562 3.492188 C 5.550781 3.582031 5.550781 3.582031 5.5 3.679688 C 4.207031 2.476562 4.207031 2.476562 3.832031 2.050781 C 3.628906 1.789062 3.628906 1.789062 3.398438 1.699219 C 3.425781 1.75 3.449219 1.796875 3.476562 1.847656 C 3.585938 2.074219 3.695312 2.300781 3.804688 2.53125 C 3.84375 2.609375 3.882812 2.6875 3.925781 2.769531 C 3.960938 2.84375 3.996094 2.917969 4.035156 2.996094 C 4.070312 3.066406 4.101562 3.136719 4.136719 3.207031 C 4.199219 3.394531 4.199219 3.394531 4.101562 3.679688 C 3.847656 3.378906 3.652344 3.066406 3.457031 2.734375 C 3.410156 2.652344 3.410156 2.652344 3.359375 2.570312 C 3.292969 2.457031 3.226562 2.339844 3.160156 2.226562 C 3.058594 2.054688 2.957031 1.878906 2.855469 1.707031 C 2.523438 1.144531 2.199219 0.578125 1.898438 0 Z M 1.898438 0 "/>
<path style=" stroke:none;fill-rule:nonzero;fill:rgb(19.215687%,80.784315%,80.784315%);fill-opacity:1;" d="M 12.300781 6.132812 C 12.78125 6.371094 13.117188 6.605469 13.5 6.980469 C 11.964844 7.175781 10.449219 7.28125 8.898438 7.265625 C 8.898438 6.980469 8.898438 6.980469 9.011719 6.777344 C 9.199219 6.605469 9.199219 6.605469 9.46875 6.566406 C 9.625 6.574219 9.625 6.574219 9.789062 6.585938 C 9.902344 6.589844 10.015625 6.59375 10.136719 6.597656 C 10.257812 6.605469 10.375 6.613281 10.5 6.621094 C 10.621094 6.625 10.742188 6.632812 10.863281 6.636719 C 11.746094 6.679688 11.746094 6.679688 12.101562 6.792969 C 12.113281 6.699219 12.128906 6.609375 12.144531 6.515625 C 12.199219 6.226562 12.199219 6.226562 12.300781 6.132812 Z M 12.300781 6.132812 "/>
<path style=" stroke:none;fill-rule:nonzero;fill:rgb(99.607843%,76.078433%,29.803923%);fill-opacity:1;" d="M 1.199219 6.886719 C 1.234375 6.886719 1.265625 6.886719 1.300781 6.886719 C 1.300781 7.003906 1.304688 7.117188 1.304688 7.238281 C 1.308594 7.675781 1.316406 8.117188 1.328125 8.554688 C 1.328125 8.746094 1.332031 8.933594 1.335938 9.121094 C 1.351562 10.460938 1.390625 11.824219 1.757812 13.125 C 1.808594 13.335938 1.78125 13.472656 1.730469 13.6875 C 1.710938 13.757812 1.695312 13.828125 1.675781 13.902344 C 1.648438 14.011719 1.648438 14.011719 1.617188 14.121094 C 1.601562 14.195312 1.582031 14.269531 1.566406 14.34375 C 1.515625 14.535156 1.460938 14.71875 1.398438 14.90625 C 1.300781 14.953125 1.300781 14.953125 1.199219 15 C 1.199219 12.324219 1.199219 9.644531 1.199219 6.886719 Z M 1.199219 6.886719 "/>
<path style=" stroke:none;fill-rule:nonzero;fill:rgb(66.666669%,33.333334%,12.156863%);fill-opacity:1;" d="M 3.800781 7.734375 C 4.152344 8.34375 4.132812 9.136719 4 9.8125 C 3.789062 10.332031 3.445312 10.777344 3.101562 11.226562 C 3 11.382812 2.898438 11.539062 2.800781 11.699219 C 2.636719 11.316406 2.769531 11.046875 2.90625 10.671875 C 3.136719 10.011719 3.339844 9.347656 3.53125 8.679688 C 3.558594 8.585938 3.585938 8.492188 3.613281 8.398438 C 3.675781 8.175781 3.738281 7.957031 3.800781 7.734375 Z M 3.800781 7.734375 "/>
<path style=" stroke:none;fill-rule:nonzero;fill:rgb(83.529413%,36.862746%,70.19608%);fill-opacity:1;" d="M 3.601562 12.546875 C 3.710938 12.894531 3.710938 12.894531 3.601562 13.160156 C 3.554688 13.242188 3.503906 13.324219 3.457031 13.40625 C 3.261719 13.714844 3.261719 13.714844 3.199219 14.054688 C 3.480469 13.941406 3.757812 13.824219 4.039062 13.707031 C 4.160156 13.65625 4.160156 13.65625 4.285156 13.605469 C 4.808594 13.386719 5.316406 13.15625 5.816406 12.898438 C 6 12.832031 6 12.832031 6.300781 12.925781 C 5.9375 13.117188 5.574219 13.308594 5.210938 13.496094 C 5.089844 13.5625 4.964844 13.628906 4.84375 13.691406 C 4.039062 14.117188 3.230469 14.523438 2.398438 14.90625 C 2.519531 14.550781 2.652344 14.222656 2.839844 13.890625 C 2.882812 13.8125 2.925781 13.734375 2.972656 13.652344 C 3.019531 13.570312 3.066406 13.492188 3.113281 13.40625 C 3.160156 13.324219 3.207031 13.242188 3.253906 13.15625 C 3.367188 12.953125 3.484375 12.75 3.601562 12.546875 Z M 3.601562 12.546875 "/>
<path style=" stroke:none;fill-rule:nonzero;fill:rgb(80.392158%,3.137255%,34.117648%);fill-opacity:1;" d="M 11.699219 8.585938 C 11.332031 8.785156 10.941406 8.871094 10.53125 8.960938 C 10.457031 8.976562 10.382812 8.992188 10.308594 9.011719 C 10.152344 9.046875 9.996094 9.082031 9.839844 9.117188 C 9.601562 9.167969 9.363281 9.222656 9.125 9.277344 C 8.972656 9.3125 8.820312 9.34375 8.667969 9.378906 C 8.597656 9.394531 8.527344 9.410156 8.453125 9.429688 C 8.105469 9.503906 7.835938 9.558594 7.5 9.433594 C 8.785156 8.410156 10.082031 8.488281 11.699219 8.585938 Z M 11.699219 8.585938 "/>
<path style=" stroke:none;fill-rule:nonzero;fill:rgb(100%,34.509805%,5.490196%);fill-opacity:1;" d="M 1.300781 1.132812 C 1.75 1.558594 1.75 1.558594 1.9375 1.828125 C 1.976562 1.886719 2.015625 1.945312 2.054688 2.003906 C 2.09375 2.0625 2.132812 2.121094 2.175781 2.179688 C 2.214844 2.242188 2.257812 2.300781 2.300781 2.363281 C 2.601562 2.804688 2.601562 2.804688 2.601562 3.019531 C 2.5 2.988281 2.402344 2.957031 2.300781 2.925781 C 2.265625 2.863281 2.234375 2.800781 2.199219 2.734375 C 2.132812 2.796875 2.066406 2.859375 2 2.925781 C 1.96875 2.894531 1.933594 2.863281 1.898438 2.832031 C 1.835938 2.921875 1.769531 3.015625 1.699219 3.113281 C 1.699219 2.957031 1.699219 2.800781 1.699219 2.640625 C 1.800781 2.609375 1.898438 2.578125 2 2.546875 C 1.902344 2.390625 1.800781 2.234375 1.699219 2.074219 C 1.617188 2.496094 1.574219 2.910156 1.546875 3.335938 C 1.542969 3.402344 1.539062 3.464844 1.535156 3.53125 C 1.519531 3.734375 1.507812 3.9375 1.492188 4.140625 C 1.484375 4.277344 1.476562 4.414062 1.464844 4.554688 C 1.445312 4.890625 1.421875 5.230469 1.398438 5.566406 C 1.367188 5.566406 1.335938 5.566406 1.300781 5.566406 C 1.300781 4.101562 1.300781 2.640625 1.300781 1.132812 Z M 1.300781 1.132812 "/>
<path style=" stroke:none;fill-rule:nonzero;fill:rgb(58.431375%,85.09804%,47.843137%);fill-opacity:1;" d="M 1.898438 0 C 2.304688 0.140625 2.660156 0.320312 3.027344 0.527344 C 3.117188 0.578125 3.117188 0.578125 3.207031 0.625 C 3.328125 0.695312 3.453125 0.761719 3.574219 0.832031 C 3.761719 0.9375 3.949219 1.042969 4.136719 1.144531 C 4.257812 1.210938 4.378906 1.28125 4.496094 1.347656 C 4.660156 1.4375 4.660156 1.4375 4.824219 1.53125 C 5.050781 1.667969 5.222656 1.792969 5.398438 1.980469 C 5.238281 1.972656 5.074219 1.960938 4.914062 1.953125 C 4.777344 1.945312 4.777344 1.945312 4.636719 1.933594 C 4.398438 1.886719 4.398438 1.886719 4.199219 1.605469 C 3.882812 1.480469 3.644531 1.414062 3.300781 1.414062 C 3.117188 1.277344 3.117188 1.277344 2.929688 1.097656 C 2.867188 1.039062 2.808594 0.976562 2.742188 0.917969 C 2.601562 0.753906 2.601562 0.753906 2.601562 0.566406 C 2.535156 0.566406 2.46875 0.566406 2.398438 0.566406 C 2.367188 0.628906 2.335938 0.691406 2.300781 0.753906 C 2.167969 0.503906 2.035156 0.257812 1.898438 0 Z M 1.898438 0 "/>
<path style=" stroke:none;fill-rule:nonzero;fill:rgb(42.745098%,85.09804%,77.254903%);fill-opacity:1;" d="M 13.398438 6.605469 C 13.875 6.65625 14.195312 6.84375 14.601562 7.074219 C 14.566406 7.136719 14.535156 7.199219 14.5 7.265625 C 12.699219 7.320312 10.902344 7.375 9.101562 7.359375 C 9.101562 7.328125 9.101562 7.296875 9.101562 7.265625 C 9.261719 7.253906 9.261719 7.253906 9.429688 7.238281 C 9.835938 7.210938 10.242188 7.179688 10.648438 7.148438 C 10.824219 7.136719 11 7.121094 11.175781 7.109375 C 11.425781 7.089844 11.679688 7.070312 11.933594 7.050781 C 12.011719 7.046875 12.085938 7.039062 12.167969 7.035156 C 12.582031 7.003906 12.988281 6.957031 13.398438 6.886719 C 13.398438 6.792969 13.398438 6.699219 13.398438 6.605469 Z M 13.398438 6.605469 "/>
<path style=" stroke:none;fill-rule:nonzero;fill:rgb(37.254903%,83.137256%,62.7451%);fill-opacity:1;" d="M 8.5 4.90625 C 9.390625 5.3125 10.246094 5.757812 11.101562 6.226562 C 10.828125 6.480469 10.683594 6.457031 10.304688 6.457031 C 9.742188 6.414062 9.480469 6.269531 9.117188 5.882812 C 8.5 5.167969 8.5 5.167969 8.5 4.90625 Z M 8.5 4.90625 "/>
<path style=" stroke:none;fill-rule:nonzero;fill:rgb(94.117647%,47.843137%,27.843139%);fill-opacity:1;" d="M 15.199219 8.207031 C 14.035156 8.835938 12.867188 9.464844 11.699219 10.09375 C 11.667969 10.03125 11.632812 9.96875 11.601562 9.90625 C 11.808594 9.75 12.019531 9.59375 12.230469 9.441406 C 12.410156 9.3125 12.585938 9.179688 12.757812 9.046875 C 13.398438 8.574219 14.359375 7.941406 15.199219 8.207031 Z M 15.199219 8.207031 "/>
<path style=" stroke:none;fill-rule:nonzero;fill:rgb(79.215688%,59.215689%,16.078432%);fill-opacity:1;" d="M 3 12.167969 C 2.859375 12.519531 2.691406 12.835938 2.496094 13.164062 C 2.4375 13.257812 2.378906 13.355469 2.320312 13.453125 C 2.261719 13.554688 2.199219 13.652344 2.136719 13.757812 C 2.078125 13.855469 2.015625 13.957031 1.953125 14.0625 C 1.800781 14.3125 1.652344 14.5625 1.5 14.8125 C 1.46875 14.8125 1.433594 14.8125 1.398438 14.8125 C 1.453125 14.203125 1.523438 13.578125 1.800781 13.019531 C 1.898438 12.988281 1.996094 12.957031 2.101562 12.925781 C 2.199219 12.769531 2.300781 12.609375 2.398438 12.453125 C 2.742188 12.167969 2.742188 12.167969 3 12.167969 Z M 3 12.167969 "/>
<path style=" stroke:none;fill-rule:nonzero;fill:rgb(9.803922%,79.607844%,89.803922%);fill-opacity:1;" d="M 12.300781 6.132812 C 12.78125 6.371094 13.132812 6.601562 13.5 6.980469 C 12.898438 7.082031 12.3125 7.085938 11.699219 7.074219 C 11.734375 7.011719 11.765625 6.949219 11.800781 6.886719 C 11.898438 6.886719 11.996094 6.886719 12.101562 6.886719 C 12.113281 6.78125 12.128906 6.671875 12.144531 6.5625 C 12.199219 6.226562 12.199219 6.226562 12.300781 6.132812 Z M 12.300781 6.132812 "/>
<path style=" stroke:none;fill-rule:nonzero;fill:rgb(92.941177%,22.745098%,22.745098%);fill-opacity:1;" d="M 11.699219 8.300781 C 12.355469 8.277344 12.957031 8.367188 13.601562 8.492188 C 13.433594 8.644531 13.269531 8.800781 13.101562 8.960938 C 13.035156 8.898438 12.96875 8.835938 12.898438 8.773438 C 12.597656 8.816406 12.597656 8.816406 12.261719 8.910156 C 11.554688 9.089844 11.554688 9.089844 11.199219 8.960938 C 11.585938 8.851562 11.890625 8.773438 12.300781 8.773438 C 12.300781 8.648438 12.300781 8.523438 12.300781 8.394531 C 12.101562 8.394531 11.902344 8.394531 11.699219 8.394531 C 11.699219 8.363281 11.699219 8.332031 11.699219 8.300781 Z M 11.699219 8.300781 "/>
<path style=" stroke:none;fill-rule:nonzero;fill:rgb(34.117648%,66.274512%,58.431375%);fill-opacity:1;" d="M 4.101562 3.679688 C 4.433594 3.769531 4.574219 3.835938 4.78125 4.105469 C 4.828125 4.199219 4.878906 4.292969 4.929688 4.386719 C 4.984375 4.480469 5.035156 4.570312 5.085938 4.667969 C 5.199219 4.90625 5.199219 4.90625 5.199219 5.09375 C 5.300781 5.125 5.398438 5.15625 5.5 5.1875 C 5.5 5.25 5.5 5.3125 5.5 5.378906 C 5.074219 5.292969 4.925781 5.222656 4.667969 4.886719 C 4.597656 4.769531 4.527344 4.648438 4.460938 4.527344 C 4.425781 4.46875 4.390625 4.40625 4.355469 4.34375 C 4.101562 3.902344 4.101562 3.902344 4.101562 3.679688 Z M 4.101562 3.679688 "/>
<path style=" stroke:none;fill-rule:nonzero;fill:rgb(77.64706%,8.627451%,75.294119%);fill-opacity:1;" d="M 5.398438 12.734375 C 5.398438 12.890625 5.398438 13.046875 5.398438 13.207031 C 5.222656 13.285156 5.042969 13.363281 4.863281 13.445312 C 4.710938 13.507812 4.710938 13.507812 4.558594 13.574219 C 4.300781 13.679688 4.300781 13.679688 4.101562 13.679688 C 4.066406 13.585938 4.035156 13.492188 4 13.394531 C 4.195312 13.285156 4.390625 13.175781 4.585938 13.066406 C 4.695312 13.003906 4.804688 12.945312 4.917969 12.878906 C 5.199219 12.734375 5.199219 12.734375 5.398438 12.734375 Z M 5.398438 12.734375 "/>
<path style=" stroke:none;fill-rule:nonzero;fill:rgb(39.607844%,84.313726%,71.764708%);fill-opacity:1;" d="M 12.101562 5.753906 C 12.292969 5.84375 12.488281 5.929688 12.679688 6.019531 C 12.789062 6.070312 12.898438 6.117188 13.007812 6.167969 C 13.257812 6.296875 13.417969 6.402344 13.601562 6.605469 C 13.382812 6.671875 13.382812 6.671875 13.101562 6.699219 C 12.832031 6.550781 12.832031 6.550781 12.570312 6.339844 C 12.480469 6.269531 12.390625 6.199219 12.300781 6.128906 C 12.234375 6.070312 12.167969 6.007812 12.101562 5.945312 C 12.101562 5.882812 12.101562 5.820312 12.101562 5.753906 Z M 12.101562 5.753906 "/>
<path style=" stroke:none;fill-rule:nonzero;fill:rgb(93.333334%,42.745098%,32.941177%);fill-opacity:1;" d="M 12.898438 8.960938 C 12.964844 8.992188 13.03125 9.023438 13.101562 9.054688 C 12.949219 9.460938 12.675781 9.585938 12.289062 9.789062 C 12.125 9.875 12.125 9.875 11.957031 9.964844 C 11.828125 10.027344 11.828125 10.027344 11.699219 10.09375 C 11.667969 10.03125 11.632812 9.96875 11.601562 9.90625 C 11.742188 9.800781 11.882812 9.699219 12.023438 9.59375 C 12.105469 9.535156 12.183594 9.476562 12.265625 9.417969 C 12.476562 9.265625 12.6875 9.113281 12.898438 8.960938 Z M 12.898438 8.960938 "/>
<path style=" stroke:none;fill-rule:nonzero;fill:rgb(15.686275%,80.392158%,83.92157%);fill-opacity:1;" d="M 12.300781 6.132812 C 12.496094 6.226562 12.695312 6.320312 12.898438 6.414062 C 12.867188 6.539062 12.835938 6.664062 12.800781 6.792969 C 12.570312 6.792969 12.339844 6.792969 12.101562 6.792969 C 12.1875 6.238281 12.1875 6.238281 12.300781 6.132812 Z M 12.300781 6.132812 "/>
<path style=" stroke:none;fill-rule:nonzero;fill:rgb(75.294119%,10.980392%,83.92157%);fill-opacity:1;" d="M 3.5 13.113281 C 3.566406 13.207031 3.632812 13.300781 3.699219 13.394531 C 3.613281 13.742188 3.613281 13.742188 3.5 14.054688 C 3.367188 14.085938 3.234375 14.117188 3.101562 14.152344 C 3.160156 13.761719 3.304688 13.460938 3.5 13.113281 Z M 3.5 13.113281 "/>
<path style=" stroke:none;fill-rule:nonzero;fill:rgb(100%,14.509805%,0%);fill-opacity:1;" d="M 1.601562 1.980469 C 2 2.359375 2 2.359375 2 2.546875 C 1.902344 2.59375 1.902344 2.59375 1.800781 2.640625 C 1.800781 2.890625 1.800781 3.140625 1.800781 3.394531 C 1.734375 3.394531 1.667969 3.394531 1.601562 3.394531 C 1.601562 2.929688 1.601562 2.460938 1.601562 1.980469 Z M 1.601562 1.980469 "/>
<path style=" stroke:none;fill-rule:nonzero;fill:rgb(79.215688%,57.254905%,18.431373%);fill-opacity:1;" d="M 3.300781 11.320312 C 3.367188 11.320312 3.433594 11.320312 3.5 11.320312 C 3.390625 11.675781 3.308594 11.929688 3 12.167969 C 2.925781 12.011719 2.925781 12.011719 2.898438 11.792969 C 3.082031 11.53125 3.082031 11.53125 3.300781 11.320312 Z M 3.300781 11.320312 "/>
<path style=" stroke:none;fill-rule:nonzero;fill:rgb(43.921569%,84.705883%,55.686277%);fill-opacity:1;" d="M 6.699219 4.152344 C 6.898438 4.199219 6.898438 4.199219 7.101562 4.246094 C 7.132812 4.371094 7.164062 4.496094 7.199219 4.621094 C 7.035156 4.589844 6.871094 4.558594 6.699219 4.527344 C 6.699219 4.402344 6.699219 4.277344 6.699219 4.152344 Z M 6.699219 4.152344 "/>
<path style=" stroke:none;fill-rule:nonzero;fill:rgb(86.666667%,18.039216%,44.705883%);fill-opacity:1;" d="M 7.699219 10.09375 C 7.863281 10.09375 8.03125 10.09375 8.199219 10.09375 C 8.167969 10.21875 8.132812 10.34375 8.101562 10.472656 C 7.933594 10.472656 7.769531 10.472656 7.601562 10.472656 C 7.632812 10.347656 7.664062 10.222656 7.699219 10.09375 Z M 7.699219 10.09375 "/>
<path style=" stroke:none;fill-rule:nonzero;fill:rgb(79.607844%,22.352941%,69.01961%);fill-opacity:1;" d="M 3.898438 13.394531 C 4 13.488281 4.097656 13.582031 4.199219 13.679688 C 3.933594 13.816406 3.8125 13.867188 3.5 13.867188 C 3.675781 13.503906 3.675781 13.503906 3.898438 13.394531 Z M 3.898438 13.394531 "/>
<path style=" stroke:none;fill-rule:nonzero;fill:rgb(87.058824%,17.647059%,57.254905%);fill-opacity:1;" d="M 5.800781 9.8125 C 5.867188 9.84375 5.933594 9.875 6 9.90625 C 5.9375 10.089844 5.9375 10.089844 5.800781 10.28125 C 5.488281 10.355469 5.488281 10.355469 5.199219 10.378906 C 5.300781 10.09375 5.300781 10.09375 5.542969 9.929688 C 5.628906 9.890625 5.710938 9.851562 5.800781 9.8125 Z M 5.800781 9.8125 "/>
<path style=" stroke:none;fill-rule:nonzero;fill:rgb(34.901962%,69.01961%,67.058825%);fill-opacity:1;" d="M 6.398438 5.660156 C 6.707031 5.777344 6.707031 5.777344 7 5.945312 C 7.03125 6.035156 7.066406 6.128906 7.101562 6.226562 C 6.753906 6.109375 6.484375 5.972656 6.199219 5.753906 C 6.265625 5.722656 6.332031 5.691406 6.398438 5.660156 Z M 6.398438 5.660156 "/>
<path style=" stroke:none;fill-rule:nonzero;fill:rgb(45.490196%,70.19608%,56.470591%);fill-opacity:1;" d="M 4.101562 3.679688 C 4.347656 3.773438 4.347656 3.773438 4.601562 3.867188 C 4.601562 4.085938 4.601562 4.304688 4.601562 4.527344 C 4.367188 4.257812 4.226562 4.003906 4.101562 3.679688 Z M 4.101562 3.679688 "/>
<path style=" stroke:none;fill-rule:nonzero;fill:rgb(36.470589%,69.01961%,65.490198%);fill-opacity:1;" d="M 5.601562 5.28125 C 5.796875 5.34375 5.996094 5.40625 6.199219 5.472656 C 6.199219 5.566406 6.199219 5.660156 6.199219 5.753906 C 6.003906 5.691406 5.804688 5.628906 5.601562 5.566406 C 5.601562 5.472656 5.601562 5.378906 5.601562 5.28125 Z M 5.601562 5.28125 "/>
<path style=" stroke:none;fill-rule:nonzero;fill:rgb(58.823532%,77.254903%,53.725493%);fill-opacity:1;" d="M 1.898438 0 C 2.351562 0.210938 2.351562 0.210938 2.5 0.566406 C 2.433594 0.628906 2.367188 0.691406 2.300781 0.753906 C 2.167969 0.503906 2.035156 0.257812 1.898438 0 Z M 1.898438 0 "/>
</g>
</svg>
