<svg xmlns="http://www.w3.org/2000/svg"  viewBox="0 0 100 100" width="200px" height="200px" baseProfile="basic"><path fill="#de333b" d="M82.232,37.059c0.134-1.07,0.01-2.21-0.465-3.322c-2.859-6.68-7.28-12.445-12.985-16.942	c-2.647-2.086-5.503-4.025-8.583-5.421c-1.355-0.614-2.575-0.948-4.022-1.233c-1.148-0.226-3.616-1.354-2.68,0.203	c-3.441-5.721-12.108-1.117-9.986,4.538c0.18,4.496,0.217,8.995,0.199,13.495c-0.372,6.234-0.477,12.477-0.471,18.737	c-0.224-0.031-0.449-0.053-0.675-0.076c-8.686-2.168-19.019,2.631-24.125,9.675c-1.97,2.719-2.969,5.561-3.168,8.293	c-1.916,8.156,0.556,16.871,10.044,19.643c12.526,3.66,28.049-7.62,31.216-19.65c0.502-1.905,0.637-3.691,0.47-5.342	c0.442-2.427,0.372-5.189-0.57-7.021c-0.018-0.242-0.037-0.484-0.055-0.726c0.024-0.695,0.042-1.364,0.041-1.953	c-0.009-3.992,0.024-7.983,0.052-11.975c0.003-0.441,0.007-0.883,0.01-1.325c1.464,0.821,3.033,1.548,4.707,2.341	c2.743,1.299,5.485,2.598,8.228,3.897c0.685,0.496,1.367,0.995,2.063,1.479c1.042,0.725,2.086,0.999,3.061,0.948	c0.288,0.137,0.577,0.273,0.865,0.41C81.266,48.511,86.465,40.677,82.232,37.059z"/><path fill="#eb5d46" d="M38.708,54.297c-8.364-1.575-15.614,3.949-16.285,12.439c-0.098,1.239,0.586,2.393,1.565,3.131	c1.768,2.036,5.96,2.087,7.151-1.331c0.988-2.838,4.357-4.312,6.972-5.264c1.193-0.434,1.995-1.318,2.423-2.337	C42.338,58.906,41.802,54.879,38.708,54.297z"/><path d="M22.901,58.206c0,0-0.487,0.503-1.293,1.573c-0.783,1.077-1.906,2.751-2.718,5.21c-0.201,0.614-0.368,1.277-0.507,1.985	c-0.058,0.356-0.123,0.72-0.158,1.098c-0.022,0.219-0.035,0.311-0.081,0.52c-0.038,0.189-0.077,0.38-0.116,0.573	c-0.299,1.546-0.475,3.273-0.35,5.137c0.126,1.858,0.562,3.863,1.523,5.805c0.936,1.95,2.494,3.759,4.494,5.125	c1.998,1.364,4.389,2.341,7.012,2.755c2.621,0.4,5.419,0.225,8.174-0.447c2.764-0.664,5.464-1.871,8.047-3.416	c1.281-0.791,2.546-1.657,3.742-2.648c0.612-0.479,1.187-1.011,1.772-1.541c0.569-0.553,1.107-1.162,1.667-1.75	c2.147-2.445,3.823-5.431,4.875-8.662c1.067-3.232,1.555-6.664,1.744-10.111c0.189-3.453,0.086-6.938-0.039-10.434	c-0.055-1.737-0.11-3.489-0.166-5.253c-0.012-0.439-0.023-0.879-0.02-1.315l-0.003-1.149c0.004-0.028,0.007-0.032,0.011-0.04	l0.019,0.016l0.007,0.006l0.001,0.002l0.301,0.155c0.934,0.475,1.878,0.955,2.831,1.44c1.915,0.947,3.863,1.911,5.824,2.881	c1.204,0.572,2.404,1.142,3.598,1.709l1.824,0.825l0.952,0.401l0.532,0.2l0.133,0.049c0.062,0.021,0.211,0.06,0.316,0.082	c0.232,0.049,0.471,0.077,0.7,0.084l-0.85-0.159l0.872,0.411c0.269,0.135,0.743,0.294,1.109,0.428	c0.379,0.164,0.816,0.2,1.233,0.272c0.417,0.089,0.85,0.054,1.278,0.037c1.723-0.112,3.304-0.931,4.434-2.071	c1.136-1.142,1.926-2.619,2.105-4.301c0.074-0.835,0.028-1.727-0.292-2.555l-0.238-0.618c-0.108-0.19-0.229-0.375-0.348-0.56	c-0.123-0.181-0.237-0.373-0.375-0.536l-0.211-0.212l-0.069-0.056c-0.005-0.004-0.013-0.008-0.016-0.013l-0.004-0.02	c-0.231-1.818-0.783-3.461-1.412-5.027c-0.64-1.566-1.381-3.062-2.233-4.469c-1.686-2.826-3.716-5.34-5.912-7.57	c-2.198-2.238-4.631-4.097-7.056-5.808c-0.628-0.394-1.252-0.785-1.873-1.174c-0.625-0.377-1.204-0.793-1.951-1.142	c-1.37-0.647-2.696-1.131-4.035-1.581c-2.672-0.88-5.324-1.565-8.014-1.878c-1.345-0.146-2.703-0.204-4.093,0.003	c-0.693,0.114-1.402,0.284-2.087,0.659c-0.675,0.347-1.347,0.928-1.694,1.68c-0.365,0.732-0.47,1.526-0.414,2.214	c0.012,0.355,0.055,0.693,0.134,1.01c0.058,0.329,0.139,0.643,0.246,0.937l0.073,0.225l0.037,0.112l0.014,0.036	c0.031,0.068,0.025,0.116,0.032,0.251l0.03,0.854c0.02,0.566,0.04,1.127,0.06,1.682c0.082,2.218,0.16,4.345,0.235,6.373	c0.039,1.013,0.076,2.001,0.113,2.964c0.015,0.481,0.046,0.957,0.046,1.423c-0.015,0.465-0.03,0.924-0.045,1.377	c-0.054,1.828-0.081,3.548-0.093,5.153c-0.023,3.21,0.015,5.959,0.061,8.198c0.028,1.113,0.052,2.101,0.074,2.958	c0.013,0.408,0.025,0.785,0.036,1.13c0.006,0.178,0.011,0.347,0.016,0.508c-0.079,0.068-0.277-0.002-0.398,0.004	c-1.13-0.095-1.723-0.145-1.723-0.145s0.624,0.092,1.813,0.268c0.135,0.003,0.354,0.09,0.45,0.027	c0.005-0.166,0.01-0.342,0.015-0.525c0.011-0.379,0.022-0.793,0.035-1.243c0.028-0.862,0.061-1.858,0.098-2.979	c0.081-2.236,0.192-4.978,0.377-8.173c0.093-1.597,0.206-3.307,0.346-5.122c0.037-0.459,0.074-0.924,0.112-1.396	c0.022-0.472,0.013-0.948,0.021-1.433c0.007-0.969,0.015-1.964,0.023-2.983c0.013-2.045,0.027-4.19,0.041-6.427	c0.003-0.561,0.006-1.127,0.009-1.7l0.004-0.863c-0.005-0.151,0.025-0.398-0.063-0.601l-0.129-0.458	c-0.273-1.003-0.378-2.097,0.025-2.765c0.339-0.676,1.267-1.065,2.362-1.186c1.094-0.124,2.301-0.044,3.519,0.134	c2.444,0.368,4.969,1.102,7.482,2.018c1.25,0.461,2.529,0.978,3.693,1.571c0.53,0.258,1.102,0.684,1.688,1.062	c0.58,0.385,1.164,0.773,1.75,1.163c2.252,1.685,4.501,3.49,6.503,5.623c2.001,2.125,3.828,4.489,5.322,7.096	c0.756,1.298,1.403,2.667,1.953,4.073c0.557,1.404,0.971,2.871,1.178,4.281c-0.028,0.151,0.14,0.288,0.153,0.414l0.141,0.385	c0.102,0.264,0.204,0.528,0.308,0.795l0.261,0.267l0.119,0.111c0.059,0.071,0.09,0.155,0.141,0.228l0.149,0.221	c0.023,0.086,0.05,0.17,0.08,0.253c0.137,0.325,0.14,0.712,0.109,1.109c-0.08,0.803-0.529,1.674-1.18,2.3	c-0.648,0.636-1.473,1.028-2.298,1.072c-0.208,0-0.416,0.041-0.626-0.024c-0.209-0.048-0.424-0.034-0.632-0.145l-0.317-0.117	c-0.103-0.035-0.207-0.066-0.367-0.149l-0.87-0.415l-0.736,1.396c-0.071-0.522-0.073-1.049-0.004-1.566	c0.04-0.039,0.077-0.013,0.114-0.014c0.026,0.002,0.094,0.028,0.079,0.023l-0.095-0.037L77.127,45.5l-0.85-0.362l-1.753-0.799	c-1.176-0.56-2.358-1.123-3.544-1.688c-1.948-0.959-3.884-1.913-5.787-2.85c-0.947-0.476-1.886-0.948-2.814-1.415	c-0.826-0.432-1.647-0.861-2.463-1.287c-0.918-0.502-1.831-1.001-2.737-1.497c-0.008,1.781-0.017,3.555-0.025,5.324l0.017,1.529	c0.002,0.455,0.017,0.904,0.033,1.352c0.053,1.796,0.145,3.565,0.228,5.306c0.169,3.483,0.318,6.873,0.196,10.154	c-0.12,3.276-0.518,6.448-1.411,9.375c-0.883,2.928-2.29,5.581-4.136,7.809c-3.781,4.426-8.78,7.595-13.742,9.036	c-2.496,0.702-5.013,0.952-7.383,0.687c-2.361-0.275-4.577-1.077-6.419-2.222c-1.843-1.148-3.307-2.69-4.241-4.424	c-0.955-1.723-1.458-3.565-1.664-5.316c-0.206-1.755-0.126-3.422,0.085-4.933c0.028-0.189,0.056-0.376,0.083-0.561	c0.031-0.163,0.059-0.444,0.061-0.596c0.014-0.363,0.058-0.715,0.094-1.06c0.097-0.687,0.222-1.337,0.384-1.943	c0.654-2.431,1.662-4.154,2.374-5.269C22.447,58.741,22.901,58.206,22.901,58.206z"/></svg>